<svg width="280" height="280" viewBox="0 0 280 280" fill="none" xmlns="http://www.w3.org/2000/svg">
<path d="M216.003 93.49C216.627 92.3366 216.559 90.9093 215.824 89.8073L195.564 59.4213C194.769 58.2247 194.769 56.6525 195.564 55.4477L215.824 25.0617C216.559 23.9592 216.627 22.5412 216.003 21.379C215.371 20.2169 214.157 19.4819 212.842 19.4819H118.343V95.3953H212.841C214.157 95.3958 215.37 94.6521 216.003 93.49Z" fill="url(#paint0_linear_4_95)"/>
<path d="M279.893 258.783L275.134 248.315L225.616 139.248H161.674H156.564H116.856V156.5H146.404H171.834H183.148L126.067 228.081L47.95 195.157L65.5014 156.5H79.3614V139.248H54.3758L0.106651 258.783C-0.0645213 259.167 -0.0300682 259.603 0.191963 259.954C0.422744 260.304 0.807197 260.518 1.2261 260.518H278.774C279.193 260.518 279.577 260.304 279.808 259.954C280.03 259.603 280.064 259.167 279.893 258.783ZM194.188 156.5H214.499L236.827 205.676L177.14 177.871L194.188 156.5ZM26.1177 243.257L44.3866 203.019L139.851 243.257H26.1177ZM162.076 243.257L134.331 231.559L171.603 184.818L242.304 217.742L253.882 243.257L162.076 243.257Z" fill="url(#paint1_linear_4_95)"/>
<path d="M108.225 19.4824H87.9911V181.4H108.225V19.4824Z" fill="url(#paint2_linear_4_95)"/>
<defs>
<linearGradient id="paint0_linear_4_95" x1="167.385" y1="19.4819" x2="167.385" y2="95.3953" gradientUnits="userSpaceOnUse">
<stop stop-color="#008968"/>
<stop offset="1" stop-color="#004E89"/>
</linearGradient>
<linearGradient id="paint1_linear_4_95" x1="140" y1="139.248" x2="140" y2="260.518" gradientUnits="userSpaceOnUse">
<stop stop-color="#008968"/>
<stop offset="1" stop-color="#004E89"/>
</linearGradient>
<linearGradient id="paint2_linear_4_95" x1="98.1083" y1="19.4824" x2="98.1083" y2="181.4" gradientUnits="userSpaceOnUse">
<stop stop-color="#008968"/>
<stop offset="1" stop-color="#004E89"/>
</linearGradient>
</defs>
</svg>
