<svg width="267" height="267" viewBox="0 0 267 267" fill="none" xmlns="http://www.w3.org/2000/svg">
<g clip-path="url(#clip0_4_87)">
<path d="M245.594 81.2891C242.521 87.2255 238.969 93.2423 235.224 99.099L233.737 101.402C230.584 106.236 227.327 110.935 224.131 115.363C236.419 122.941 243.266 131.73 243.266 140.297C243.266 151.071 232.448 162.197 213.584 170.822C207.39 173.654 200.57 176.103 193.285 178.17C194.706 168.609 195.586 158.646 195.897 148.456C195.178 148.652 194.434 148.766 193.674 148.766C191.222 148.766 188.891 147.703 187.283 145.852C186.117 144.512 183.104 141.008 179.048 136.01C179.072 137.436 179.094 138.863 179.094 140.297C179.094 154.937 177.84 169.114 175.467 182.263C162.318 184.636 148.141 185.89 133.502 185.89C118.86 185.89 104.682 184.637 91.5318 182.263C89.1589 169.114 87.9056 154.937 87.9056 140.297C87.9056 125.657 89.1589 111.48 91.5318 98.331C104.682 95.9581 118.86 94.7039 133.502 94.7039C138.973 94.7039 144.378 94.8792 149.69 95.2222C146.137 89.4603 142.828 83.5976 140.025 77.856C137.859 77.8027 135.687 77.7671 133.502 77.7671C120.464 77.7671 107.726 78.7156 95.6254 80.5134C97.6909 73.2272 100.141 66.4075 102.973 60.2137C111.598 41.3512 122.724 30.5319 133.498 30.5311C133.499 30.5311 133.5 30.5311 133.5 30.5311C133.708 30.5311 133.916 30.5429 134.125 30.5506C135.952 24.5685 138.653 18.9632 142.086 13.8915C139.248 13.7009 136.387 13.5942 133.501 13.5942C133.5 13.5942 133.5 13.5942 133.5 13.5942C133.499 13.5942 133.497 13.5942 133.496 13.5942C63.6343 13.5968 6.79675 70.4343 6.79675 140.297C6.79675 210.16 63.6334 266.997 133.497 267C133.498 267 133.499 267 133.5 267H133.5C133.501 267 133.501 267 133.502 267C203.365 267 260.202 210.162 260.202 140.297C260.203 119.002 254.914 98.9221 245.594 81.2891ZM96.6882 36.8892C93.4118 41.6417 90.3572 47.075 87.5694 53.1714C83.3504 62.4003 79.8911 72.8114 77.232 84.0312C66.0139 86.6903 55.6028 90.1488 46.3739 94.3677C40.2775 97.1555 34.8425 100.21 30.09 103.487C41.1447 72.5268 65.7277 47.9439 96.6882 36.8892ZM53.4171 109.771C59.6109 106.939 66.4297 104.491 73.7151 102.425C71.9172 114.523 70.9696 127.26 70.9696 140.297C70.9696 153.334 71.9172 166.07 73.7151 178.169C66.4297 176.103 59.6109 173.654 53.418 170.822C34.5537 162.196 23.7344 151.071 23.7344 140.297C23.7336 129.523 34.5529 118.396 53.4171 109.771ZM30.09 177.106C34.8425 180.382 40.2775 183.438 46.3739 186.226C55.602 190.445 66.013 193.904 77.232 196.563C79.8911 207.782 83.3504 218.194 87.5694 227.423C90.3572 233.519 93.4118 238.952 96.6882 243.705C65.7277 232.65 41.1438 208.066 30.09 177.106ZM133.5 250.063C133.5 250.063 133.499 250.063 133.498 250.063C122.724 250.062 111.598 239.243 102.973 220.38C100.141 214.187 97.6917 207.367 95.6254 200.081C107.726 201.879 120.463 202.827 133.502 202.827C146.538 202.827 159.274 201.879 171.372 200.082C169.307 207.368 166.857 214.187 164.025 220.38C155.401 239.244 144.274 250.063 133.5 250.063ZM170.308 243.708C173.585 238.955 176.641 233.52 179.429 227.423C183.649 218.194 187.108 207.783 189.767 196.563C200.986 193.905 211.398 190.445 220.627 186.226C226.723 183.438 232.158 180.383 236.91 177.106C225.855 208.069 201.271 232.654 170.308 243.708Z" fill="url(#paint0_linear_4_87)"/>
<path d="M193.956 131.008C194.716 131.008 195.437 130.668 195.919 130.079C203.726 120.569 242.665 71.9519 242.665 48.7078C242.665 21.8502 220.814 0 193.956 0C167.099 0 145.249 21.8502 145.249 48.7078C145.249 71.9613 184.186 120.572 191.992 130.079C192.474 130.668 193.195 131.008 193.956 131.008ZM167.704 45.8726C167.704 31.3975 179.481 19.6205 193.956 19.6205C208.432 19.6205 220.209 31.3975 220.209 45.8726C220.209 60.3477 208.432 72.1247 193.956 72.1247C179.481 72.1247 167.704 60.3485 167.704 45.8726Z" fill="url(#paint1_linear_4_87)"/>
</g>
<defs>
<linearGradient id="paint0_linear_4_87" x1="133.5" y1="13.5942" x2="133.5" y2="267" gradientUnits="userSpaceOnUse">
<stop stop-color="#004E89"/>
<stop offset="1" stop-color="#008968"/>
</linearGradient>
<linearGradient id="paint1_linear_4_87" x1="193.957" y1="0" x2="193.957" y2="131.008" gradientUnits="userSpaceOnUse">
<stop stop-color="#004E89"/>
<stop offset="1" stop-color="#008968"/>
</linearGradient>
<clipPath id="clip0_4_87">
<rect width="267" height="267" fill="white"/>
</clipPath>
</defs>
</svg>
