<svg width="305" height="305" viewBox="0 0 305 305" fill="none" xmlns="http://www.w3.org/2000/svg">
<path fill-rule="evenodd" clip-rule="evenodd" d="M143.576 27.9005C149.329 25.7428 155.671 25.7428 161.424 27.9005L250.382 61.2599C260.304 64.9799 266.875 74.4635 266.875 85.0583V153.209C266.875 196.532 242.399 236.136 203.65 255.51L161.025 276.822C155.658 279.506 149.342 279.506 143.975 276.822L101.35 255.51C62.6015 236.136 38.125 196.532 38.125 153.209V85.0583C38.125 74.4635 44.6971 64.9799 54.6172 61.2599L143.576 27.9005ZM152.5 51.6989L63.5417 85.0583V153.209C63.5417 186.904 82.579 217.708 112.717 232.776L152.5 252.668V51.6989Z" fill="url(#paint0_linear_5_126)"/>
<defs>
<linearGradient id="paint0_linear_5_126" x1="152.5" y1="26.2822" x2="152.5" y2="278.835" gradientUnits="userSpaceOnUse">
<stop stop-color="#004E89"/>
<stop offset="1" stop-color="#008968"/>
</linearGradient>
</defs>
</svg>
